<svg width="44" height="40" viewBox="0 0 44 40" fill="none" xmlns="http://www.w3.org/2000/svg">
<g id="Frame 1">
<g id="Clip path group">
<mask id="mask0_471_712" style="mask-type:luminance" maskUnits="userSpaceOnUse" x="4" y="0" width="37" height="10">
<g id="dd8f690994">
<path id="Vector" d="M4.00293 0.802734H40.4951V9.7469H4.00293V0.802734Z" fill="white"/>
</g>
</mask>
<g mask="url(#mask0_471_712)">
<g id="Group">
<path id="Vector_2" d="M22.2517 8.98936C16.8461 8.98936 12.4485 13.3832 12.4485 18.7832C12.4485 24.1842 16.8461 28.578 22.2517 28.578C27.6573 28.578 32.0558 24.1842 32.0558 18.7832C32.0558 13.3832 27.6573 8.98936 22.2517 8.98936ZM22.2517 29.6057C16.2787 29.6057 11.42 24.7507 11.42 18.7832C11.42 12.8167 16.2787 7.96171 22.2517 7.96171C28.2247 7.96171 33.0844 12.8167 33.0844 18.7832C33.0844 24.7507 28.2247 29.6057 22.2517 29.6057ZM24.3247 33.2877L25.8052 35.6141C27.0014 35.3635 28.166 34.9861 29.2747 34.4905L29.1033 31.7392L29.3865 31.5818C30.4067 31.0125 31.3608 30.3203 32.2198 29.5237L32.4574 29.3038L35.0223 30.3147C35.8459 29.4053 36.5689 28.4159 37.1754 27.365L35.4192 25.237L35.5552 24.9444C36.0499 23.8795 36.4142 22.7596 36.6388 21.6165L36.7012 21.2988L39.3686 20.6093C39.4366 19.9804 39.4702 19.3804 39.4702 18.7832C39.4702 18.1869 39.4366 17.5869 39.3686 16.958L36.7012 16.2695L36.6388 15.9518C36.4142 14.8068 36.0499 13.6869 35.5562 12.6239L35.4192 12.3294L37.1754 10.2024C36.5689 9.15147 35.8459 8.16202 35.0223 7.2527L32.4574 8.26358L32.2198 8.0437C31.3617 7.24804 30.4086 6.55487 29.3865 5.98561L29.1042 5.82815L29.2747 3.07689C28.166 2.58123 27.0014 2.2039 25.8061 1.95328L24.3247 4.27969L24.0033 4.2415C23.4033 4.16976 22.8135 4.13435 22.2517 4.13435C21.6825 4.13435 21.1095 4.16882 20.5001 4.2415L20.1787 4.27969L18.6973 1.95328C17.502 2.2039 16.3383 2.58123 15.2287 3.07689L15.4001 5.82815L15.1169 5.98561C14.0958 6.55487 13.1426 7.24711 12.2836 8.0437L12.046 8.26358L9.48112 7.2527C8.65751 8.16202 7.93546 9.15147 7.328 10.2024L9.08422 12.3294L8.9482 12.6239C8.45347 13.6869 8.08919 14.8068 7.86465 15.9518L7.80223 16.2695L5.13482 16.958C5.06773 17.5813 5.03419 18.1944 5.03419 18.7832C5.03419 19.373 5.06773 19.986 5.13482 20.6093L7.80223 21.2978L7.86465 21.6155C8.08919 22.7606 8.45347 23.8805 8.9482 24.9435L9.08422 25.237L7.328 27.365C7.93546 28.4159 8.65751 29.4053 9.48112 30.3147L12.046 29.3038L12.2836 29.5237C13.1426 30.3203 14.0958 31.0125 15.1169 31.5818L15.4001 31.7392L15.2287 34.4905C16.3374 34.9861 17.5011 35.3635 18.6973 35.6141L20.1787 33.2877L20.5001 33.3259C21.7188 33.4703 22.7837 33.4703 24.0033 33.3259L24.3247 33.2877ZM19.1893 36.7563L18.8473 36.6911C17.3306 36.4051 15.8594 35.929 14.474 35.2759L14.1591 35.1268L14.3333 32.3178C13.4408 31.7951 12.5985 31.1839 11.8243 30.4954L9.20721 31.5277L8.96776 31.2734C7.90658 30.1479 6.99353 28.8976 6.25656 27.5578L6.08793 27.2522L7.88049 25.0805C7.46309 24.1302 7.14166 23.1416 6.92179 22.1326L4.19847 21.4292L4.15468 21.0835C4.05593 20.2981 4.00562 19.5248 4.00562 18.7832C4.00562 18.0425 4.05593 17.2702 4.15468 16.4838L4.19847 16.1382L6.92179 15.4347C7.14166 14.4257 7.46309 13.4372 7.88049 12.4869L6.08793 10.3151L6.25656 10.0096C6.99353 8.66979 7.90658 7.41947 8.96776 6.29306L9.20721 6.03965L11.8243 7.07102C12.5985 6.38344 13.4398 5.77225 14.3333 5.24958L14.1591 2.44055L14.474 2.29148C15.8604 1.63837 17.3315 1.16228 18.8473 0.876253L19.1893 0.811035L20.7014 3.1859C21.2334 3.13186 21.743 3.1067 22.2517 3.1067C22.752 3.1067 23.2728 3.13372 23.802 3.1859L25.3142 0.811035L25.657 0.876253C27.1719 1.16228 28.644 1.63837 30.0294 2.29148L30.3452 2.44055L30.1701 5.24958C31.0636 5.77318 31.9049 6.38344 32.6791 7.07195L35.2971 6.03965L35.5357 6.29399C36.5978 7.4204 37.5099 8.67072 38.2478 10.0096L38.4155 10.3151L36.6229 12.4869C37.0403 13.4372 37.3618 14.4257 37.5826 15.4347L40.305 16.1382L40.3497 16.4848C40.4494 17.2832 40.4987 18.0351 40.4987 18.7832C40.4987 19.5314 40.4494 20.2842 40.3497 21.0835L40.305 21.4292L37.5826 22.1326C37.3627 23.1407 37.0403 24.1302 36.622 25.0805L38.4146 27.2522L38.2469 27.5578C37.5099 28.8976 36.5978 30.1479 35.5357 31.2743L35.2971 31.5277L32.6782 30.4954C31.904 31.1839 31.0626 31.7951 30.1701 32.3178L30.3452 35.1268L30.0294 35.2759C28.644 35.929 27.1719 36.4051 25.6561 36.6911L25.3132 36.7563L23.802 34.3815C22.7371 34.4877 21.7654 34.4877 20.7014 34.3815L19.1893 36.7563Z" fill="#FFBF00"/>
</g>
</g>
</g>
<g id="Clip path group_2">
<mask id="mask1_471_712" style="mask-type:luminance" maskUnits="userSpaceOnUse" x="4" y="30" width="37" height="10">
<g id="d390a1489f">
<path id="Vector_3" d="M4.43701 30.4321H40.0348V39.1974H4.43701V30.4321Z" fill="white"/>
</g>
</mask>
<g mask="url(#mask1_471_712)">
<g id="Group_2">
<path id="Vector_4" d="M22.2388 31.1765C16.9655 31.1765 12.676 26.8702 12.676 21.5774C12.676 16.2845 16.9655 11.9782 22.2388 11.9782C27.5122 11.9782 31.8026 16.2845 31.8026 21.5774C31.8026 26.8702 27.5122 31.1765 22.2388 31.1765ZM22.2388 10.9711C16.4121 10.9711 11.6726 15.7292 11.6726 21.5774C11.6726 27.4255 16.4121 32.1836 22.2388 32.1836C28.0656 32.1836 32.806 27.4255 32.806 21.5774C32.806 15.7292 28.0656 10.9711 22.2388 10.9711ZM24.2615 7.36358L25.7056 5.08282C26.8721 5.32878 28.0078 5.69773 29.0895 6.18407L28.9227 8.88036L29.1985 9.03502C30.1945 9.5931 31.1243 10.2714 31.9628 11.0512L32.1939 11.2673L34.6964 10.276C35.4995 11.1676 36.2048 12.1375 36.7964 13.167L35.084 15.2521L35.2163 15.54C35.6989 16.5835 36.0548 17.681 36.2728 18.8019L36.3343 19.113L38.9365 19.7876C39.0026 20.4044 39.0352 20.9923 39.0352 21.5774C39.0352 22.1624 39.0026 22.7503 38.9365 23.3671L36.3343 24.0417L36.2728 24.3528C36.0548 25.4755 35.6989 26.573 35.2163 27.6147L35.084 27.9026L36.7964 29.9867C36.2048 31.0172 35.4995 31.9871 34.6964 32.8787L32.1939 31.8874L31.9628 32.1035C31.1252 32.8833 30.1954 33.5616 29.1985 34.1197L28.9237 34.2743L29.0904 36.9716C28.0078 37.457 26.8721 37.8259 25.7056 38.0719L24.2615 35.7921L23.9475 35.8293C23.3615 35.8992 22.7867 35.9346 22.2388 35.9346C21.6835 35.9346 21.1245 35.9001 20.5301 35.8293L20.2161 35.7921L18.772 38.0719C17.6056 37.8259 16.4698 37.457 15.3882 36.9716L15.5549 34.2743L15.2792 34.1197C14.2822 33.5616 13.3524 32.8833 12.5148 32.1035L12.2829 31.8874L9.78128 32.8787C8.97817 31.9871 8.27289 31.0172 7.68127 29.9877L9.3937 27.9026L9.26141 27.6147C8.77879 26.573 8.42382 25.4755 8.20488 24.3528L8.14338 24.0417L5.54119 23.3671C5.47597 22.7559 5.44336 22.155 5.44336 21.5774C5.44336 20.9997 5.47597 20.3997 5.54119 19.7876L8.14338 19.114L8.20488 18.8019C8.42382 17.6792 8.77879 16.5826 9.26141 15.54L9.3937 15.2521L7.68127 13.167C8.27289 12.1375 8.97817 11.1676 9.78128 10.276L12.2829 11.2673L12.5148 11.0512C13.3524 10.2714 14.2832 9.5931 15.2792 9.03502L15.5549 8.88036L15.3882 6.18407C16.4698 5.69773 17.6046 5.32878 18.772 5.08282L20.2161 7.36358L20.5301 7.32538C21.719 7.18377 22.7568 7.18377 23.9475 7.32538L24.2615 7.36358ZM19.2519 3.96387L18.9174 4.02722C17.4388 4.30766 16.0031 4.77443 14.6512 5.4145L14.3437 5.56077L14.5142 8.3139C13.6431 8.82539 12.8223 9.42447 12.0667 10.099L9.51389 9.08813L9.28004 9.33689C8.24494 10.44 7.35518 11.6652 6.63499 12.9788L6.47101 13.2779L8.21978 15.4068C7.81264 16.3376 7.49866 17.3065 7.28437 18.296L4.62814 18.9845L4.58528 19.3236C4.48839 20.0932 4.43994 20.8516 4.43994 21.5774C4.43994 22.3031 4.48839 23.0615 4.58528 23.8311L4.62814 24.1702L7.28437 24.8597C7.49866 25.8482 7.81264 26.8171 8.21978 27.7488L6.47101 29.8777L6.63499 30.1768C7.35518 31.4895 8.24494 32.7147 9.28004 33.8187L9.51389 34.0675L12.0667 33.0557C12.8223 33.7302 13.6431 34.3293 14.5142 34.8408L14.3437 37.5949L14.6512 37.7402C16.004 38.3803 17.4388 38.848 18.9174 39.1275L19.2519 39.1908L20.7267 36.8635C21.2457 36.9166 21.7432 36.9417 22.2388 36.9417C22.727 36.9417 23.2348 36.9147 23.751 36.8635L25.2258 39.1908L25.5603 39.1275C27.0389 38.848 28.4737 38.3803 29.8265 37.7402L30.1339 37.5939L29.9634 34.8408C30.8345 34.3284 31.6554 33.7302 32.41 33.0557L34.9638 34.0675L35.1976 33.8187C36.2327 32.7147 37.1234 31.4886 37.8427 30.1768L38.0066 29.8768L36.2579 27.7488C36.665 26.8171 36.9781 25.8482 37.1933 24.8597L39.8495 24.1702L39.8924 23.8311C39.9902 23.0475 40.0387 22.3106 40.0387 21.5774C40.0387 20.845 39.9902 20.1072 39.8924 19.3236L39.8495 18.9845L37.1933 18.296C36.979 17.3074 36.665 16.3376 36.2569 15.4068L38.0057 13.2779L37.8417 12.9788C37.1225 11.6652 36.2327 10.44 35.1967 9.33596L34.9638 9.08813L32.41 10.099C31.6544 9.42447 30.8336 8.82539 29.9625 8.3139L30.1339 5.56077L29.8255 5.4145C28.4737 4.77443 27.0389 4.30766 25.5603 4.02722L25.2258 3.96387L23.751 6.29121C22.7121 6.18686 21.7637 6.18686 20.7267 6.29121L19.2519 3.96387Z" fill="white"/>
</g>
</g>
</g>
<g id="Group_3">
<g id="Group_4">
<g id="Group_5">
<path id="Vector_5" d="M5.02344 25.7442V14.9553H6.80854V25.7442H5.02344ZM8.58247 20.5044L12.3278 25.7442H10.293L7.41228 21.4995V19.364L10.0322 14.9553H12.0372L8.58247 20.5044Z" fill="white"/>
</g>
</g>
</g>
<g id="Group_6">
<g id="Group_7">
<g id="Group_8">
<path id="Vector_6" d="M12.6934 20.2996C12.6934 19.4303 12.7977 18.6617 13.0064 17.9927C13.217 17.3247 13.5104 16.7592 13.8859 16.297C14.2632 15.8331 14.7077 15.4762 15.2201 15.2275C15.7316 14.9796 16.2906 14.8352 16.8971 14.7952V16.2598C16.5636 16.2998 16.2505 16.4033 15.958 16.5691C15.6645 16.7331 15.4111 16.9772 15.1977 17.2995C14.9834 17.62 14.8139 18.03 14.6872 18.5294C14.5605 19.0269 14.4915 19.6166 14.4822 20.2996C14.4915 20.9927 14.5605 21.5853 14.6872 22.0772C14.8139 22.5691 14.9862 22.9819 15.2052 23.3145C15.4232 23.648 15.6794 23.8996 15.9729 24.071C16.2654 24.2406 16.5738 24.3393 16.8971 24.3691V25.8188C16.3008 25.7788 15.7437 25.6353 15.2275 25.3865C14.7105 25.1387 14.2632 24.7819 13.8859 24.317C13.5104 23.853 13.217 23.2837 13.0064 22.6101C12.7977 21.9375 12.6934 21.167 12.6934 20.2996ZM17.4822 14.7952C18.0757 14.825 18.6282 14.9666 19.1406 15.22C19.6549 15.4734 20.0993 15.8331 20.4748 16.297C20.8493 16.7592 21.1437 17.3247 21.358 17.9927C21.5742 18.6617 21.6822 19.4303 21.6822 20.2996C21.6822 21.167 21.5742 21.9375 21.358 22.6101C21.1437 23.2837 20.8493 23.853 20.4748 24.317C20.0993 24.7819 19.6568 25.1387 19.1481 25.3865C18.6412 25.6353 18.0859 25.7788 17.4822 25.8188V24.3691C17.812 24.33 18.1241 24.2257 18.4176 24.0561C18.7102 23.8847 18.9636 23.635 19.1779 23.307C19.394 22.9791 19.5655 22.5691 19.6922 22.0772C19.8189 21.5853 19.8869 20.9927 19.8971 20.2996C19.8869 19.6064 19.8189 19.0138 19.6922 18.5219C19.5655 18.0281 19.3912 17.6182 19.1704 17.2921C18.9515 16.9641 18.6953 16.7163 18.4027 16.5467C18.1092 16.3753 17.8027 16.2747 17.4822 16.2449V14.7952Z" fill="white"/>
</g>
</g>
</g>
<g id="Group_9">
<g id="Group_10">
<g id="Group_11">
<path id="Vector_7" d="M24.0966 25.7442H22.3115V14.9553H24.0966V25.7442Z" fill="white"/>
</g>
</g>
</g>
<g id="Group_12">
<g id="Group_13">
<g id="Group_14">
<path id="Vector_8" d="M24.6968 20.2996C24.6968 19.4303 24.8011 18.6617 25.0098 17.9927C25.2204 17.3247 25.5139 16.7592 25.8893 16.297C26.2667 15.8331 26.7111 15.4762 27.2235 15.2275C27.735 14.9796 28.294 14.8352 28.9005 14.7952V16.2598C28.567 16.2998 28.2539 16.4033 27.9614 16.5691C27.6679 16.7331 27.4145 16.9772 27.2011 17.2995C26.9869 17.62 26.8173 18.03 26.6906 18.5294C26.5639 19.0269 26.4949 19.6166 26.4856 20.2996C26.4949 20.9927 26.5639 21.5853 26.6906 22.0772C26.8173 22.5691 26.9897 22.9819 27.2086 23.3145C27.4266 23.648 27.6828 23.8996 27.9763 24.071C28.2689 24.2406 28.5772 24.3393 28.9005 24.3691V25.8188C28.3043 25.7788 27.7471 25.6353 27.231 25.3865C26.7139 25.1387 26.2667 24.7819 25.8893 24.317C25.5139 23.853 25.2204 23.2837 25.0098 22.6101C24.8011 21.9375 24.6968 21.167 24.6968 20.2996ZM29.4856 14.7952C30.0791 14.825 30.6316 14.9666 31.144 15.22C31.6583 15.4734 32.1027 15.8331 32.4782 16.297C32.8527 16.7592 33.1472 17.3247 33.3614 17.9927C33.5776 18.6617 33.6857 19.4303 33.6857 20.2996C33.6857 21.167 33.5776 21.9375 33.3614 22.6101C33.1472 23.2837 32.8527 23.853 32.4782 24.317C32.1027 24.7819 31.6602 25.1387 31.1515 25.3865C30.6446 25.6353 30.0894 25.7788 29.4856 25.8188V24.3691C29.8154 24.33 30.1276 24.2257 30.421 24.0561C30.7136 23.8847 30.967 23.635 31.1813 23.307C31.3974 22.9791 31.5689 22.5691 31.6956 22.0772C31.8223 21.5853 31.8903 20.9927 31.9006 20.2996C31.8903 19.6064 31.8223 19.0138 31.6956 18.5219C31.5689 18.0281 31.3947 17.6182 31.1738 17.2921C30.9549 16.9641 30.6987 16.7163 30.4061 16.5467C30.1127 16.3753 29.8061 16.2747 29.4856 16.2449V14.7952Z" fill="white"/>
</g>
</g>
</g>
<g id="Group_15">
<g id="Group_16">
<g id="Group_17">
<path id="Vector_9" d="M39.249 16.625C39.1987 16.6054 39.1391 16.5719 39.0701 16.5244C39.0031 16.475 38.9062 16.4294 38.7794 16.3865C38.6527 16.3418 38.4906 16.3045 38.295 16.2747C38.1012 16.2449 37.8524 16.2402 37.5496 16.2598V14.7803C37.9791 14.7905 38.4152 14.838 38.8577 14.9219C39.3021 15.0039 39.6608 15.1334 39.9347 15.3095C39.877 15.4362 39.809 15.5759 39.7298 15.7269C39.6524 15.8759 39.5788 16.0166 39.5099 16.148C39.4428 16.2803 39.3841 16.3902 39.3347 16.4797C39.2872 16.5672 39.2583 16.6157 39.249 16.625ZM34.1993 17.7952C34.1993 17.3657 34.272 16.9809 34.4192 16.6399C34.5654 16.2971 34.763 15.9971 35.0117 15.738C35.2595 15.48 35.5521 15.2759 35.8875 15.1269C36.2248 14.9759 36.5788 14.8753 36.9496 14.825V16.3604C36.6384 16.4703 36.3804 16.6585 36.1745 16.9269C35.9704 17.1952 35.8689 17.4663 35.8689 17.7393C35.8689 18.1194 35.9704 18.4269 36.1745 18.6598C36.3804 18.8937 36.6384 19.0986 36.9496 19.2747V20.9443C36.6291 20.7878 36.3068 20.6201 35.9844 20.4412C35.6611 20.2604 35.3676 20.048 35.1049 19.8039C34.8412 19.5579 34.6241 19.2747 34.4527 18.9542C34.2831 18.6319 34.1993 18.2452 34.1993 17.7952ZM34.4341 23.7692C34.5701 23.8465 34.7434 23.922 34.9521 23.9965C35.1627 24.0692 35.3807 24.1372 35.6043 24.2015C35.8279 24.2639 36.0515 24.3151 36.2751 24.3543C36.5006 24.3943 36.7111 24.4139 36.9049 24.4139H36.9496V25.804H36.9198C36.686 25.804 36.4446 25.7909 36.1968 25.7667C35.9481 25.7425 35.6974 25.7015 35.444 25.6437C35.1906 25.5841 34.9484 25.504 34.7173 25.4015C34.4881 25.2971 34.2906 25.1732 34.1248 25.0288L34.4341 23.7692ZM37.5496 19.5654C37.872 19.7126 38.2018 19.8691 38.5372 20.035C38.8745 20.2017 39.1801 20.4039 39.454 20.6424C39.727 20.8809 39.9506 21.1716 40.1248 21.5145C40.3009 21.8555 40.3894 22.2803 40.3894 22.789C40.3894 23.1393 40.3232 23.4813 40.1919 23.8139C40.0596 24.1446 39.8751 24.4437 39.6366 24.712C39.3981 24.9803 39.1018 25.2077 38.7496 25.394C38.3993 25.5785 37.9987 25.6996 37.5496 25.7592V24.3543C38.349 24.1586 38.7496 23.6266 38.7496 22.7592C38.7496 22.4164 38.6378 22.1331 38.4142 21.9095C38.1906 21.6859 37.9018 21.4763 37.5496 21.2797V19.5654Z" fill="white"/>
</g>
</g>
</g>
<path id="Vector_10" d="M6.07495 9.80103H44.0001" stroke="#FFBF00" stroke-width="0.715797"/>
<path id="Vector_11" d="M1.24976 30.0745H38.9969" stroke="white" stroke-width="0.71617"/>
<path id="Vector_12" d="M43.6133 29.7959V9.58117" stroke="#FFBF00" stroke-width="0.714496"/>
<path id="Vector_13" d="M1.24878 30.4321L1.24878 9.50187" stroke="white" stroke-width="0.714532"/>
<path id="Vector_14" d="M40.5156 30.0745H43.9144" stroke="#FFBF00" stroke-width="0.709434"/>
<path id="Vector_15" d="M1 9.78687H4.39878" stroke="white" stroke-width="0.709434"/>
</g>
</svg>
